<svg width="25" height="25" viewBox="0 0 25 25" fill="none" xmlns="http://www.w3.org/2000/svg">
<path fill-rule="evenodd" clip-rule="evenodd" d="M0.73159 7.01963C0.73159 5.7889 1.68338 4.83593 3.11679 4.83593C4.55019 4.83593 7.49107 4.80293 7.49107 4.80293C7.49107 4.80293 7.44619 3.77781 7.44619 2.47405C7.44619 1.17058 8.61269 0.28009 10.0112 0.28009C11.41 0.28009 18.3391 0.338899 19.019 0.338899C19.6989 0.338899 20.2505 0.590999 21.0127 1.17043C21.7747 1.75016 22.9268 2.71911 23.4973 3.36469C24.0678 4.01026 24.3086 4.38717 24.3086 4.91982C24.3086 5.45262 24.3086 16.1911 24.2998 17.4354C24.2911 18.6797 23.1446 19.5996 21.787 19.6177C20.4294 19.6359 17.5142 19.6359 17.5142 19.6359C17.5142 19.6359 17.5826 20.5562 17.5826 21.8577C17.5826 23.1593 16.3938 24.1765 15.0429 24.2124C13.6922 24.2484 4.49197 24.1406 3.18088 24.1765C1.86978 24.2124 0.691406 23.1801 0.691406 21.9148C0.691406 20.6495 0.73159 8.25021 0.73159 7.01963ZM3.18572 7.59833L3.01677 21.2157C3.01576 21.2926 3.03003 21.3689 3.05874 21.4402C3.08746 21.5115 3.13005 21.5764 3.18405 21.6312C3.23804 21.6859 3.30237 21.7294 3.3733 21.7591C3.44423 21.7887 3.52034 21.804 3.59723 21.8041L14.4369 21.8363C14.5134 21.8373 14.5892 21.8227 14.6598 21.7936C14.7304 21.7645 14.7945 21.7214 14.848 21.6669C14.9016 21.6124 14.9436 21.5476 14.9715 21.4765C14.9994 21.4054 15.0126 21.3293 15.0104 21.2529L14.9784 19.9489C14.9777 19.9103 14.9694 19.8722 14.9539 19.8369C14.9385 19.8016 14.9161 19.7696 14.8882 19.743C14.8603 19.7164 14.8274 19.6955 14.7913 19.6817C14.7553 19.6679 14.7169 19.6613 14.6783 19.6625C14.6783 19.6625 11.4716 19.7563 10.0195 19.7054C8.56737 19.6544 7.57452 18.7072 7.57408 17.4299C7.57364 16.1527 7.57452 7.28991 7.57452 7.28991C7.57459 7.25133 7.56702 7.21312 7.55223 7.17749C7.53744 7.14186 7.51573 7.10951 7.48836 7.08233C7.46098 7.05515 7.42849 7.03366 7.39275 7.01912C7.35702 7.00458 7.31876 6.99728 7.28018 6.99763L3.77938 7.00965C3.62313 7.01075 3.47351 7.07296 3.36256 7.18298C3.2516 7.293 3.18813 7.44209 3.18572 7.59833ZM18.8057 2.42756C18.5613 2.21491 18.3633 2.30437 18.3633 2.62877V5.15931C18.3633 5.32151 18.4945 5.45364 18.6562 5.45452L21.7166 5.46933C22.0398 5.47095 22.1039 5.2998 21.8597 5.08715L18.8057 2.42756ZM10.3574 2.55178C10.3188 2.55143 10.2805 2.5587 10.2447 2.57317C10.209 2.58764 10.1764 2.60903 10.1489 2.63611C10.1213 2.66319 10.0994 2.69543 10.0844 2.73099C10.0693 2.76655 10.0615 2.80472 10.0612 2.84333L9.96939 16.9649C9.96883 17.0225 9.97972 17.0797 10.0014 17.1331C10.0231 17.1865 10.0553 17.2351 10.0959 17.276C10.1365 17.3168 10.1849 17.3493 10.2381 17.3713C10.2914 17.3934 10.3485 17.4046 10.4061 17.4044L21.4346 17.3771C21.5132 17.3768 21.5885 17.3457 21.6445 17.2906C21.7005 17.2355 21.7327 17.1606 21.7344 17.0821L21.9203 7.92771C21.9214 7.88938 21.9147 7.85123 21.9007 7.81552C21.8867 7.77982 21.8657 7.74729 21.8389 7.71987C21.812 7.69246 21.78 7.67071 21.7446 7.65593C21.7092 7.64114 21.6712 7.63362 21.6329 7.63382C21.6329 7.63382 17.7946 7.63998 17.1184 7.63998C16.4422 7.63998 16.0133 7.31411 16.0133 6.68936C16.0133 6.06461 16.0004 2.88146 16.0004 2.88146C15.9999 2.80322 15.9686 2.72834 15.9133 2.67298C15.858 2.61762 15.7832 2.5862 15.7049 2.58551L10.3573 2.55178H10.3574Z" fill="white"/>
</svg>
